<?xml version="1.0" standalone="no"?>
<!DOCTYPE svg PUBLIC "-//W3C//DTD SVG 20010904//EN"
 "http://www.w3.org/TR/2001/REC-SVG-20010904/DTD/svg10.dtd">
<svg version="1.0" xmlns="http://www.w3.org/2000/svg"
 width="400.000000pt" height="400.000000pt" viewBox="0 0 400.000000 400.000000"
 preserveAspectRatio="xMidYMid meet">
<metadata>
Created by potrace 1.11, written by Peter Selinger 2001-2013
</metadata>
<g transform="translate(0.000000,400.000000) scale(0.100000,-0.100000)"
fill="#000000" stroke="none">
<path d="M1739 3996 c-2 -2 -22 -6 -44 -9 -232 -29 -561 -155 -783 -299 -451
-295 -770 -763 -872 -1283 -30 -149 -35 -212 -35 -405 1 -209 4 -237 51 -470
16 -77 95 -288 149 -398 157 -317 389 -586 665 -771 79 -53 119 -77 240 -143
99 -54 380 -151 502 -173 690 -124 1360 91 1841 592 277 289 470 690 532 1108
11 70 14 418 5 480 -5 33 -12 81 -15 107 -4 26 -19 99 -35 162 -116 458 -379
847 -775 1144 -187 140 -551 296 -785 337 -19 4 -57 10 -85 15 -48 8 -548 13
-556 6z m511 -41 c225 -34 420 -94 606 -185 232 -114 378 -222 579 -430 248
-255 427 -616 495 -999 17 -100 27 -257 14 -224 -4 8 -13 9 -29 3 -12 -5 -26
-6 -31 -2 -4 4 -5 0 -2 -9 5 -12 1 -15 -18 -11 -16 3 -26 -1 -30 -12 -3 -9
-12 -16 -19 -16 -7 0 -20 -10 -29 -22 -9 -13 -14 -16 -11 -8 4 8 -3 4 -15 -10
-11 -14 -34 -40 -50 -59 -17 -19 -30 -40 -30 -48 0 -8 -4 -11 -10 -8 -5 3 -10
-3 -10 -13 0 -11 -8 -23 -17 -26 -15 -6 -15 -8 -3 -16 8 -6 10 -10 4 -10 -7 0
-15 -12 -20 -27 -9 -34 -9 -33 -21 -62 -8 -20 -11 -21 -16 -8 -4 10 -2 17 3
17 9 0 6 32 -6 52 -4 6 -3 8 4 4 6 -3 13 -2 17 4 3 5 2 10 -2 10 -5 0 -10 12
-11 27 -1 15 -6 31 -11 36 -5 5 -5 22 -1 38 5 17 5 29 -1 29 -5 0 -9 11 -9 25
0 14 -6 25 -12 25 -9 0 -8 4 2 10 13 9 13 11 0 20 -8 5 -11 10 -7 10 4 0 2 10
-4 22 -7 13 -13 36 -15 52 -1 16 -8 32 -15 37 -8 5 -11 9 -6 9 4 0 1 13 -7 29
-9 16 -12 31 -9 35 4 3 1 6 -5 6 -7 0 -11 3 -10 8 4 12 -24 72 -34 72 -5 0 -6
5 -3 11 4 6 -1 17 -11 25 -11 9 -14 13 -8 10 13 -6 -32 85 -47 95 -6 3 -12 14
-13 24 -2 11 -8 21 -14 23 -14 4 -12 -38 2 -57 8 -11 8 -13 -1 -7 -7 4 -13 3
-13 -1 0 -5 6 -15 13 -22 10 -11 10 -13 0 -7 -7 4 -13 2 -13 -3 0 -6 4 -11 10
-11 5 0 7 -7 4 -15 -4 -8 0 -23 7 -32 12 -15 12 -16 -4 -10 -16 6 -16 4 -3
-21 9 -18 11 -35 5 -49 -5 -15 -5 -23 3 -23 7 0 6 -5 -2 -15 -7 -8 -8 -15 -3
-15 5 0 9 -9 9 -20 0 -11 -4 -20 -9 -20 -5 0 -5 -6 1 -13 12 -14 11 -35 -1
-54 -4 -6 -4 -14 1 -17 9 -6 8 -47 -2 -64 -4 -7 -2 -12 4 -12 7 0 8 -6 1 -18
-7 -13 -6 -23 1 -30 9 -9 9 -12 -1 -12 -7 0 -10 -4 -6 -9 3 -6 -3 -15 -12 -21
-17 -11 -17 -11 0 -6 9 3 17 1 17 -4 0 -6 -4 -10 -8 -10 -4 0 -7 -12 -6 -27 1
-16 -3 -39 -8 -53 -6 -17 -6 -26 3 -29 8 -2 7 -6 -2 -12 -12 -8 -11 -11 1 -19
13 -8 12 -10 -2 -10 -21 0 -23 -11 -5 -29 10 -10 8 -11 -7 -5 -15 6 -17 4 -11
-6 5 -9 4 -11 -3 -6 -7 4 -12 15 -12 25 0 9 -6 23 -12 30 -11 11 -10 12 2 6 8
-4 5 2 -8 14 -12 12 -20 26 -17 31 3 5 1 11 -5 15 -6 4 -8 11 -4 16 3 5 0 8
-6 7 -7 -2 -14 6 -16 16 -1 10 -9 23 -16 27 -7 5 -9 9 -4 9 6 0 1 7 -10 16
-10 8 -13 12 -5 8 9 -5 8 2 -5 19 -10 15 -25 27 -32 27 -7 0 -10 5 -7 10 3 6
-1 10 -10 10 -9 0 -14 4 -10 9 6 11 -59 81 -75 81 -6 0 -10 7 -10 15 0 8 -5
15 -11 15 -5 0 -7 6 -3 13 6 9 4 9 -8 -1 -14 -11 -17 -10 -23 8 -5 16 -10 19
-20 10 -11 -9 -12 -7 -8 10 4 16 2 19 -11 14 -10 -4 -18 0 -22 10 -3 9 -12 16
-20 16 -8 0 -14 5 -14 11 0 5 -4 7 -10 4 -5 -3 -10 -1 -10 5 0 6 -4 8 -10 5
-5 -3 -10 -1 -10 5 0 6 -4 8 -10 5 -5 -3 -10 -2 -10 4 0 6 -7 8 -15 5 -8 -4
-15 -1 -15 6 0 6 -5 8 -10 5 -6 -4 -17 -1 -25 5 -8 7 -15 9 -15 5 0 -4 -6 -2
-14 4 -11 10 -14 9 -12 -1 3 -22 17 -39 27 -32 6 3 13 -4 16 -16 4 -16 8 -18
14 -8 7 10 9 9 9 -4 0 -10 9 -22 20 -28 11 -6 18 -15 15 -20 -3 -6 1 -7 10 -4
9 4 15 3 14 -2 -4 -21 2 -35 11 -29 6 3 10 -1 10 -9 0 -9 4 -16 8 -16 5 0 14
-11 20 -25 6 -14 17 -24 24 -23 8 2 12 -5 10 -18 -2 -13 4 -24 13 -28 9 -3 14
-10 10 -16 -3 -5 3 -18 13 -28 10 -10 18 -26 16 -35 -1 -8 3 -14 10 -11 7 3
13 -7 14 -23 1 -16 7 -30 12 -31 6 -2 8 -8 4 -13 -3 -5 0 -9 7 -9 9 0 9 -3 0
-14 -9 -11 -9 -16 0 -22 8 -5 9 -3 4 6 -6 9 -4 11 4 6 7 -5 10 -14 7 -22 -3
-7 3 -18 12 -23 14 -8 14 -11 2 -11 -13 -1 -13 -2 0 -13 8 -7 15 -24 14 -39
-1 -16 4 -28 9 -28 6 0 8 -3 5 -6 -3 -3 0 -31 8 -62 14 -57 26 -148 25 -189
-1 -17 3 -21 17 -16 16 7 16 6 0 -11 -20 -19 -24 -31 -8 -21 9 5 15 -23 11
-47 0 -5 4 -8 10 -8 5 0 8 -3 6 -8 -6 -9 19 -33 27 -25 3 4 6 1 6 -5 0 -6 7
-9 16 -5 9 3 20 0 25 -8 7 -11 9 -11 9 -1 0 7 5 10 10 7 6 -3 10 0 10 7 0 10
2 10 9 -1 5 -7 14 -10 20 -7 6 4 11 1 11 -6 0 -8 3 -9 8 -2 4 5 18 10 32 10
14 0 28 -5 32 -10 5 -7 8 -2 8 9 0 13 3 16 8 8 4 -6 23 -10 45 -8 26 3 35 1
31 -7 -5 -7 -2 -8 7 -3 22 14 60 15 53 2 -5 -9 -4 -9 6 0 7 6 19 9 28 6 11 -5
13 -2 8 8 -4 8 0 5 8 -5 9 -11 16 -15 16 -9 0 7 8 12 18 12 43 1 52 6 63 35 7
17 11 37 10 44 -1 6 3 12 9 12 5 0 10 5 10 11 0 5 -5 7 -12 3 -7 -5 -8 -3 -2
7 11 18 15 36 17 81 1 20 5 34 10 31 4 -2 5 9 2 26 -3 18 -1 31 5 31 6 0 8 11
6 25 -3 14 2 31 10 40 9 8 11 15 6 15 -9 0 -9 23 -1 40 3 7 7 23 8 38 1 8 6
10 14 6 8 -5 8 -2 -2 9 -7 9 -9 17 -4 17 5 0 10 6 11 13 3 34 11 52 23 49 10
-3 10 0 -1 12 -9 12 -9 16 -1 16 7 0 9 4 6 10 -3 5 -1 10 6 10 6 0 9 8 6 20
-5 21 15 44 29 32 4 -4 3 0 -4 9 -10 13 -10 19 1 28 8 6 17 8 20 5 4 -4 5 3 2
14 -2 13 3 26 13 32 9 5 13 10 9 10 -5 0 -1 7 7 16 9 8 13 20 10 26 -4 6 -2 8
3 5 6 -4 13 0 17 8 30 78 31 -202 1 -370 -37 -211 -78 -346 -160 -520 -176
-380 -464 -686 -841 -897 -149 -83 -426 -181 -574 -203 -25 -4 -47 -8 -50 -10
-29 -18 -397 -26 -527 -12 -541 59 -1064 365 -1370 803 -35 49 -67 94 -72 100
-5 6 -34 58 -64 115 -124 233 -195 462 -225 722 -14 125 -7 415 13 507 3 14 8
45 11 70 6 43 23 68 34 50 3 -4 12 -10 20 -12 8 -2 22 -13 31 -26 9 -13 19
-23 23 -23 18 3 29 0 23 -5 -7 -8 11 -27 41 -43 12 -7 20 -16 17 -22 -4 -5 0
-9 8 -9 17 0 58 -46 49 -56 -4 -4 -2 -5 3 -1 10 5 47 -16 46 -27 -1 -4 15 -21
34 -39 19 -17 35 -39 35 -47 0 -13 1 -13 10 0 8 13 10 13 10 -2 0 -9 13 -29
29 -44 17 -15 27 -32 24 -37 -3 -6 -1 -7 5 -3 7 4 12 2 12 -4 0 -6 4 -8 10 -5
5 3 7 0 4 -8 -3 -8 2 -17 10 -20 9 -4 16 -14 16 -22 0 -9 5 -13 10 -10 6 3 10
-1 10 -9 0 -8 8 -20 18 -25 9 -6 13 -11 8 -11 -5 0 1 -9 14 -20 15 -13 18 -20
9 -20 -8 -1 -5 -6 8 -13 22 -12 23 -14 23 -44 0 -9 3 -14 6 -10 10 9 32 -16
27 -30 -3 -7 0 -13 6 -13 6 0 11 -7 11 -15 0 -7 8 -19 18 -24 12 -8 13 -10 3
-11 -11 0 -9 -4 5 -15 10 -8 15 -15 10 -15 -6 0 -2 -6 7 -12 10 -7 19 -24 22
-37 2 -13 12 -30 22 -38 10 -8 12 -12 6 -8 -9 4 -11 1 -7 -9 3 -9 10 -13 15
-10 5 3 6 -2 3 -10 -3 -9 -1 -16 4 -16 6 0 9 -9 7 -20 -2 -11 1 -23 7 -26 7
-5 8 -2 3 6 -6 9 -4 11 4 5 7 -4 11 -16 8 -26 -3 -12 0 -19 10 -19 8 0 12 -4
9 -8 -3 -5 1 -20 9 -35 8 -15 12 -27 9 -27 -3 0 1 -10 8 -22 7 -13 11 -26 10
-30 -1 -5 3 -8 9 -8 8 0 7 -6 -2 -17 -10 -11 -10 -14 -1 -9 7 4 12 2 12 -5 0
-7 8 -21 17 -32 10 -11 12 -17 6 -13 -18 10 -16 -5 4 -33 11 -16 12 -21 3 -16
-9 6 -8 1 3 -14 8 -13 13 -30 10 -37 -3 -8 0 -14 5 -14 6 0 9 -9 7 -20 -2 -11
0 -20 5 -20 5 0 6 -7 3 -17 -5 -12 -3 -14 7 -8 9 5 11 4 6 -4 -4 -6 -2 -19 6
-28 9 -12 9 -15 1 -9 -7 4 -13 2 -13 -3 0 -6 4 -11 9 -11 5 0 7 -13 6 -30 -1
-16 1 -30 6 -30 4 0 7 -15 5 -34 -1 -19 1 -33 5 -31 12 8 17 -43 5 -56 -8 -9
-8 -10 0 -6 14 8 27 -20 14 -28 -11 -7 -1 -37 14 -47 7 -5 7 -8 -2 -8 -7 0
-10 -4 -7 -10 3 -5 8 -31 10 -57 6 -58 9 -75 17 -88 4 -6 3 -17 -2 -25 -6 -10
-3 -21 8 -34 9 -11 11 -16 4 -12 -7 4 -1 -10 15 -33 15 -22 35 -39 43 -38 8 1
14 -3 13 -10 -2 -7 4 -10 12 -7 8 4 15 2 15 -4 0 -11 18 -11 37 1 6 4 14 3 18
-2 3 -5 14 -8 25 -6 11 2 20 -2 20 -8 0 -9 3 -8 8 1 5 7 19 11 33 8 13 -2 29
1 36 6 7 6 14 5 19 -3 5 -8 3 -9 -6 -4 -9 6 -11 4 -5 -4 5 -9 10 -10 18 -2 15
15 30 14 21 -2 -6 -9 -3 -8 8 1 13 11 21 11 39 2 12 -7 19 -8 15 -2 -3 5 1 13
10 16 12 5 15 2 10 -10 -6 -14 -4 -15 10 -4 13 12 17 11 25 -1 5 -8 9 -9 9 -3
0 6 22 11 55 11 33 0 50 -4 43 -9 -7 -4 -8 -8 -2 -8 6 0 14 3 18 7 13 13 48
14 41 1 -4 -7 1 -4 9 6 9 11 16 15 16 9 0 -7 12 -10 30 -8 22 3 29 1 25 -8 -4
-7 1 -3 9 7 9 11 16 15 16 9 0 -6 10 -9 23 -9 12 1 28 -3 36 -8 11 -8 13 -8 8
0 -4 8 7 11 36 10 30 0 41 3 39 12 -1 8 2 11 8 7 14 -9 50 13 50 31 0 8 3 13
8 11 4 -3 13 1 20 9 10 11 10 14 0 14 -10 0 -10 2 0 9 8 4 13 11 13 15 -4 27
0 56 7 52 5 -3 9 1 9 9 0 8 -4 12 -9 9 -4 -3 -8 0 -8 5 0 6 4 11 9 11 6 0 9
12 7 27 -1 16 2 34 7 40 5 7 6 13 2 13 -5 0 0 10 11 22 11 14 13 18 3 10 -13
-9 -16 -9 -16 3 0 8 4 15 9 15 4 0 8 5 8 11 0 5 -4 8 -10 4 -5 -3 -3 7 5 22
10 18 11 31 4 39 -7 8 -6 15 2 20 8 5 9 3 4 -6 -5 -9 -4 -11 4 -6 9 6 9 11 -1
24 -11 13 -11 14 1 7 11 -6 13 -4 8 8 -3 9 -2 19 2 22 5 3 7 15 3 27 -3 13 -1
19 5 15 6 -4 9 7 8 28 -2 20 1 37 5 40 5 3 6 14 3 25 -3 12 0 20 7 20 10 0 10
3 0 15 -10 12 -9 16 2 20 9 4 14 18 13 35 -1 17 2 30 7 30 4 0 8 5 8 11 0 5
-6 7 -12 3 -10 -6 -10 -4 0 8 19 23 26 71 10 63 -7 -4 -6 -1 3 7 9 7 15 21 13
30 -1 10 2 20 6 23 5 3 6 13 3 22 -5 12 -3 14 8 8 11 -7 11 -5 -1 10 -9 12
-10 16 -2 11 9 -6 11 -1 8 18 -3 14 -1 26 4 26 4 0 6 10 2 22 -3 13 -1 19 5
15 6 -4 9 4 7 18 -1 14 2 25 7 25 6 0 7 5 4 10 -4 6 -1 18 7 27 11 14 11 16
-2 8 -9 -5 -7 1 5 15 12 14 14 20 5 15 -11 -7 -10 -2 4 19 10 16 13 25 7 22
-6 -4 -11 -2 -11 3 0 6 5 11 11 11 6 0 9 7 5 15 -3 8 -2 15 2 15 4 0 8 10 9
22 1 11 8 25 15 29 10 6 10 9 1 9 -7 0 -10 7 -7 15 4 8 11 12 16 9 6 -4 5 2
-1 14 -7 13 -7 22 -1 24 5 2 11 17 13 35 2 17 10 40 18 49 8 10 9 15 2 11 -8
-5 -7 2 2 20 8 15 15 36 15 46 0 10 4 16 9 13 5 -4 7 3 4 14 -3 12 0 20 6 20
7 0 10 4 6 9 -3 5 -1 13 5 16 8 5 7 11 -1 21 -10 12 -10 15 2 12 9 -2 13 4 11
15 -2 9 3 17 9 17 7 0 9 3 6 7 -4 3 -1 13 6 21 9 12 9 14 0 9 -8 -5 -7 2 2 20
8 15 15 36 15 46 0 9 4 17 9 17 6 0 8 9 6 20 -2 11 1 20 7 20 5 0 7 7 4 16 -4
10 -2 13 6 8 7 -5 9 -2 6 7 -3 8 0 23 8 33 7 11 11 23 8 27 -3 5 0 9 6 9 6 0
8 5 5 10 -3 6 -1 10 5 10 6 0 8 5 5 10 -4 6 -1 17 5 25 7 8 9 15 4 15 -5 0 0
7 10 15 14 11 16 15 5 15 -11 1 -10 4 3 14 10 7 15 16 11 19 -3 4 -1 13 5 20
7 8 9 17 5 20 -3 4 -1 7 5 7 7 0 11 6 9 13 -1 6 4 11 11 9 8 -1 11 2 7 8 -4 6
1 22 10 37 9 14 12 22 5 18 -7 -4 -4 4 5 19 10 14 13 26 9 26 -5 1 2 9 15 20
13 11 24 31 25 44 0 13 5 24 10 23 4 -1 10 7 12 17 1 10 9 23 16 27 7 5 9 9 3
9 -5 0 -2 7 9 15 10 7 15 18 11 24 -3 6 -1 11 5 11 6 0 8 5 5 10 -3 6 -1 10 6
10 7 0 10 3 6 6 -3 4 4 15 16 26 12 11 15 17 7 13 -10 -4 -9 -2 2 8 10 8 15
17 11 20 -3 4 1 9 10 13 9 3 13 12 10 20 -3 7 2 17 11 20 9 3 16 12 16 19 0 7
10 20 23 29 12 9 16 14 8 10 -9 -5 -8 2 5 18 10 14 23 23 28 20 5 -3 6 0 2 6
-3 6 -2 13 4 17 6 4 7 11 4 17 -4 7 -2 8 4 4 7 -4 12 -1 12 9 0 9 5 13 10 10
6 -3 10 1 10 9 0 9 5 16 10 16 6 0 10 7 10 16 0 8 4 13 9 10 4 -3 16 3 25 13
13 15 14 20 4 24 -9 4 -8 6 3 6 25 1 40 24 27 41 -8 12 -9 11 -4 -4 5 -14 2
-17 -9 -12 -9 3 -13 2 -10 -4 3 -6 -1 -10 -9 -10 -9 0 -16 -4 -16 -10 0 -5 -7
-10 -15 -10 -9 0 -18 -6 -21 -14 -3 -9 -12 -12 -21 -9 -11 4 -14 2 -9 -5 4 -7
2 -12 -4 -12 -6 0 -8 -5 -4 -12 5 -7 3 -8 -6 -3 -8 5 -20 -1 -32 -16 -11 -13
-16 -18 -12 -10 5 9 3 12 -4 7 -7 -4 -12 -14 -12 -22 0 -8 -4 -12 -10 -9 -5 3
-10 1 -10 -5 0 -6 -4 -8 -10 -5 -5 3 -10 -2 -10 -11 0 -10 -3 -15 -6 -11 -3 3
-14 -3 -25 -14 -11 -11 -25 -17 -31 -13 -6 4 -8 3 -5 -3 4 -6 0 -14 -9 -17 -8
-3 -12 -11 -8 -17 4 -8 3 -9 -5 -5 -6 4 -14 0 -17 -8 -3 -9 -10 -14 -14 -11
-4 3 -10 -2 -14 -10 -3 -8 -13 -15 -23 -15 -15 0 -16 -2 -3 -10 13 -8 12 -10
-2 -10 -10 0 -18 -4 -18 -10 0 -5 -7 -10 -16 -10 -8 0 -12 -4 -9 -10 3 -5 0
-10 -8 -10 -8 0 -18 -7 -21 -16 -3 -8 -11 -12 -17 -8 -8 4 -9 3 -5 -4 3 -6 -3
-16 -14 -22 -11 -6 -18 -15 -15 -21 4 -5 -1 -9 -10 -9 -8 0 -19 -10 -24 -22
-5 -13 -11 -22 -15 -20 -3 1 -6 0 -6 -3 0 -2 -12 -17 -25 -31 -14 -15 -25 -31
-25 -35 0 -5 -7 -9 -16 -9 -8 0 -13 -4 -9 -9 3 -6 -4 -15 -15 -21 -11 -6 -18
-15 -15 -19 3 -5 -2 -12 -11 -15 -9 -4 -14 -13 -10 -22 3 -8 2 -12 -4 -9 -6 3
-10 1 -10 -5 0 -6 -4 -8 -10 -5 -5 3 -10 -1 -10 -9 0 -9 -4 -16 -10 -16 -5 0
-10 -7 -10 -15 0 -8 -5 -15 -11 -15 -5 0 -7 -4 -4 -10 3 -5 1 -10 -5 -10 -6 0
-8 -4 -5 -10 3 -5 -1 -10 -10 -10 -11 0 -15 -5 -12 -15 4 -8 1 -17 -5 -21 -7
-5 -8 -2 -3 6 5 9 4 11 -3 6 -7 -4 -12 -14 -12 -22 0 -8 -4 -14 -10 -14 -5 0
-6 -7 -3 -17 4 -11 3 -14 -5 -9 -11 6 -17 -5 -13 -26 0 -5 -6 -8 -14 -8 -8 0
-12 -6 -9 -14 3 -8 0 -17 -7 -22 -8 -4 -10 -3 -5 4 4 7 5 12 1 12 -6 0 -28
-52 -25 -59 1 -2 -4 -7 -11 -12 -7 -4 -14 -15 -15 -25 -2 -10 -10 -22 -19 -27
-13 -7 -14 -12 -4 -23 10 -12 10 -15 -2 -12 -9 2 -14 -5 -13 -19 1 -13 -1 -21
-5 -19 -3 1 -14 -5 -23 -16 -10 -10 -13 -18 -7 -18 8 0 8 -5 -1 -15 -7 -8 -9
-15 -4 -15 5 0 2 -5 -6 -10 -8 -5 -15 -13 -16 -17 -3 -26 -18 -63 -26 -63 -5
0 -7 -4 -4 -9 3 -5 -4 -21 -16 -37 -13 -15 -17 -25 -10 -20 17 10 15 -10 -4
-28 -12 -12 -12 -16 -2 -16 11 0 11 -2 0 -9 -7 -4 -14 -14 -15 -22 -2 -8 -7
-20 -11 -28 -6 -9 -5 -12 2 -8 7 5 6 -1 -1 -17 -7 -13 -14 -23 -17 -21 -6 3
-11 -28 -13 -72 -1 -13 -4 -23 -8 -23 -4 0 -6 -11 -4 -25 1 -14 -1 -25 -5 -25
-10 0 -8 -20 4 -39 6 -10 5 -12 -2 -7 -11 7 -17 -6 -13 -27 1 -5 -3 -6 -9 -2
-5 3 -10 -2 -11 -12 0 -11 -3 -13 -6 -5 -3 7 -1 18 4 25 5 7 9 26 8 42 -1 17
3 38 7 47 6 12 5 18 -2 18 -8 0 -8 6 0 20 6 11 7 20 2 20 -10 0 -9 30 2 48 4
6 3 12 -2 12 -6 0 -9 20 -7 45 3 31 0 43 -7 39 -7 -5 -8 -2 -3 7 11 17 12 50
1 67 -4 7 -2 12 6 12 10 0 10 2 -1 9 -15 10 -23 61 -9 61 4 0 0 16 -8 35 -17
41 -17 48 -4 40 7 -4 7 2 1 19 -6 13 -9 33 -9 43 1 10 -2 29 -6 42 -5 15 -5
21 2 17 6 -4 8 2 5 14 -3 11 -8 18 -12 16 -4 -3 -8 4 -8 15 -1 11 2 17 7 14 5
-3 3 7 -5 22 -11 21 -12 30 -2 42 9 12 9 13 0 7 -9 -5 -13 0 -14 13 -2 22 -5
39 -9 44 -1 1 -3 14 -4 29 0 14 -4 29 -8 33 -4 4 -4 13 -1 21 3 8 1 14 -4 14
-5 0 -9 9 -9 20 0 11 5 20 11 20 7 0 7 3 0 8 -14 9 -38 65 -25 57 5 -3 3 10
-5 30 -9 19 -12 35 -8 35 4 0 2 5 -5 12 -7 7 -12 22 -12 34 0 13 -7 30 -16 38
-12 12 -12 16 -2 16 10 0 9 3 -2 10 -8 5 -11 10 -6 10 5 0 3 7 -4 15 -10 12
-10 15 1 16 10 0 11 2 2 6 -7 2 -13 11 -13 19 0 8 -4 14 -9 14 -6 0 -8 9 -6
19 2 11 -3 22 -11 25 -11 4 -12 10 -4 25 7 14 7 22 -2 27 -7 5 -8 3 -3 -6 6
-9 4 -11 -4 -6 -7 5 -10 14 -7 22 3 8 0 14 -6 14 -6 0 -8 3 -5 6 3 4 1 16 -5
28 -7 11 -13 30 -15 41 -2 10 -10 30 -18 42 -9 13 -13 23 -10 23 4 0 -1 7 -10
16 -9 9 -14 23 -11 30 3 8 1 14 -4 14 -6 0 -10 8 -10 17 0 9 -6 24 -14 32 -8
9 -16 23 -18 31 -2 8 -12 23 -22 33 -10 9 -16 17 -12 17 4 0 2 9 -4 20 -6 11
-15 18 -21 15 -13 -9 -11 9 4 24 10 10 9 12 -3 9 -8 -2 -14 3 -12 10 1 6 -2
12 -7 12 -5 0 -14 14 -21 31 -10 22 -15 27 -21 17 -6 -8 -9 -2 -9 20 0 20 -5
31 -12 30 -7 -2 -12 4 -12 13 1 9 -6 21 -16 26 -14 9 -16 7 -16 -18 0 -16 4
-29 9 -29 5 0 4 -6 -2 -14 -8 -9 -8 -16 -2 -20 5 -4 10 -14 10 -24 1 -36 9
-90 15 -100 3 -6 2 -14 -4 -17 -8 -5 -7 -11 1 -21 6 -8 9 -23 6 -34 -3 -11 -1
-20 3 -20 5 0 7 -9 5 -20 -2 -11 0 -20 6 -20 11 0 7 -22 -6 -32 -6 -5 -6 -8 2
-8 6 0 10 -8 8 -17 -1 -10 5 -27 14 -37 9 -11 10 -16 4 -12 -10 5 -11 -4 -7
-41 3 -26 8 -51 10 -55 3 -4 -1 -8 -8 -8 -10 0 -10 -2 1 -9 8 -5 11 -16 8 -24
-3 -8 0 -20 6 -26 8 -8 8 -11 -1 -11 -6 0 -9 -7 -6 -15 4 -8 11 -12 18 -8 6 4
5 0 -2 -9 -10 -12 -11 -22 -3 -37 8 -14 8 -20 0 -23 -8 -3 -6 -10 5 -21 10 -9
12 -17 6 -17 -7 0 -8 -6 -2 -16 11 -20 3 -66 -11 -57 -6 3 -7 1 -3 -6 4 -6 11
-9 15 -6 5 2 8 -14 6 -38 -1 -23 0 -46 4 -52 9 -16 8 -45 -1 -51 -5 -3 -4 -12
3 -20 6 -8 9 -25 7 -39 -3 -14 0 -25 6 -26 7 0 6 -3 -1 -6 -9 -3 -10 -10 -3
-24 7 -13 7 -19 1 -19 -7 0 -7 -9 1 -25 8 -18 8 -28 0 -38 -7 -8 -8 -17 -4
-21 11 -11 9 -50 -3 -58 -6 -5 -6 -8 2 -8 6 0 10 -9 8 -20 -2 -11 1 -20 6 -20
6 0 7 -6 2 -12 -10 -16 -10 -36 -1 -70 3 -16 4 -28 0 -28 -9 0 -8 -62 1 -77 4
-6 3 -14 -2 -17 -5 -4 -8 -18 -5 -32 3 -17 1 -23 -7 -19 -8 6 -8 2 0 -14 10
-17 9 -22 -4 -28 -13 -4 -14 -8 -4 -14 7 -4 14 -15 15 -23 1 -9 -2 -14 -7 -11
-8 5 -4 -39 7 -73 2 -7 -1 -10 -6 -7 -6 3 -9 -4 -8 -17 0 -13 -2 -45 -7 -73
-4 -27 -7 -58 -7 -68 0 -10 -4 -15 -10 -11 -6 4 -6 -1 1 -14 6 -12 7 -23 2
-26 -4 -3 -7 -21 -6 -40 1 -19 -2 -33 -6 -30 -4 2 -10 0 -14 -6 -10 -16 -25
-12 -19 5 4 8 11 12 17 8 6 -3 7 -1 3 6 -6 9 -11 9 -21 1 -11 -9 -13 -6 -11
14 2 14 0 24 -3 22 -3 -2 -12 2 -19 10 -7 8 -9 14 -5 14 4 0 1 5 -7 10 -8 5
-15 14 -15 19 0 6 -9 17 -20 26 -11 9 -13 14 -5 10 12 -5 12 -4 -1 7 -8 7 -18
21 -22 31 -4 10 -12 15 -18 12 -6 -4 -9 -1 -7 7 2 8 -14 29 -34 47 -21 18 -35
38 -31 44 4 6 1 7 -6 3 -8 -5 -14 0 -18 13 -3 11 -9 18 -14 15 -5 -3 -9 0 -9
6 0 20 -234 243 -244 233 -3 -3 -8 2 -12 11 -3 9 -10 13 -15 10 -5 -3 -9 2 -9
10 0 9 -7 16 -15 16 -8 0 -15 5 -15 10 0 6 -7 10 -15 10 -8 0 -15 5 -15 11 0
5 -4 8 -9 5 -5 -3 -11 4 -14 15 -3 12 -10 18 -16 14 -6 -3 -21 3 -33 14 -12
12 -28 21 -35 21 -7 0 -13 3 -13 8 0 7 -27 21 -82 41 -16 6 -28 15 -28 21 0 6
-5 8 -11 5 -6 -4 -22 4 -36 16 -15 13 -23 19 -19 12 4 -7 -5 -6 -24 3 -17 9
-27 20 -24 26 4 6 -1 8 -15 3 -13 -4 -21 -2 -21 5 0 6 -4 8 -10 5 -5 -3 -10
-1 -10 5 0 6 -4 8 -10 5 -5 -3 -10 0 -11 7 0 10 -2 10 -6 1 -3 -10 -8 -9 -20
2 -12 13 -18 13 -31 3 -12 -10 -14 -10 -8 0 11 19 -3 33 -22 23 -13 -7 -28 -3
-56 14 -21 13 -45 21 -52 18 -17 -6 -17 0 -3 51 6 21 12 46 14 55 21 104 151
376 251 523 97 143 159 216 310 358 276 261 703 456 1086 496 35 3 65 8 67 10
6 5 364 -4 411 -11z m-2120 -1495 c0 -5 -5 -10 -11 -10 -5 0 -7 5 -4 10 3 6 8
10 11 10 2 0 4 -4 4 -10z m2650 -196 c0 -8 -19 -13 -24 -6 -3 5 1 9 9 9 8 0
15 -2 15 -3z"/>
<path d="M22 2491 c-11 -7 -10 -9 3 -14 9 -4 14 -3 10 2 -3 5 1 12 7 14 7 3 9
6 3 6 -5 0 -16 -3 -23 -8z"/>
</g>
</svg>
